<svg width="18" height="15" viewBox="0 0 18 15" fill="none" xmlns="http://www.w3.org/2000/svg">
<mask id="mask0_23_470" style="mask-type:luminance" maskUnits="userSpaceOnUse" x="0" y="0" width="18" height="15">
<path d="M0 0.75H18V14.25H0V0.75Z" fill="white"/>
</mask>
<g mask="url(#mask0_23_470)">
<path fill-rule="evenodd" clip-rule="evenodd" d="M0 0.75H18V14.25H0V0.75Z" fill="#F7FCFF"/>
<path fill-rule="evenodd" clip-rule="evenodd" d="M0 9.00002V10.125H18V9.00002H0Z" fill="#E31D1C"/>
<path fill-rule="evenodd" clip-rule="evenodd" d="M0 11.0625V12.1875H18V11.0625H0Z" fill="#E31D1C"/>
<path fill-rule="evenodd" clip-rule="evenodd" d="M0 4.87495V5.99995H18V4.87495H0Z" fill="#E31D1C"/>
<path fill-rule="evenodd" clip-rule="evenodd" d="M0 13.125V14.25H18V13.125H0Z" fill="#E31D1C"/>
<path fill-rule="evenodd" clip-rule="evenodd" d="M0 6.9375V8.0625H18V6.9375H0Z" fill="#E31D1C"/>
<path fill-rule="evenodd" clip-rule="evenodd" d="M0 0.75V1.875H18V0.75H0Z" fill="#E31D1C"/>
<path fill-rule="evenodd" clip-rule="evenodd" d="M0 2.81255V3.93755H18V2.81255H0Z" fill="#E31D1C"/>
<path d="M0 0.75H11.25V8.0625H0V0.75Z" fill="#2E42A5"/>
<path fill-rule="evenodd" clip-rule="evenodd" d="M0.968562 2.40303L0.560253 2.68927L0.698101 2.17987L0.335449 1.85704H0.809121L0.967988 1.44131L1.15427 1.85704H1.55807L1.2408 2.17987L1.36362 2.68927L0.968562 2.40303ZM3.21856 2.40303L2.81025 2.68927L2.9481 2.17987L2.58545 1.85704H3.05912L3.21799 1.44131L3.40427 1.85704H3.80807L3.49079 2.17987L3.61362 2.68927L3.21856 2.40303ZM5.06025 2.68927L5.46856 2.40303L5.86362 2.68927L5.74077 2.17987L6.05808 1.85704H5.65426L5.46799 1.44131L5.30912 1.85704H4.83545L5.1981 2.17987L5.06025 2.68927ZM7.71858 2.40303L7.31026 2.68927L7.44813 2.17987L7.08543 1.85704H7.55911L7.71802 1.44131L7.90426 1.85704H8.30808L7.99077 2.17987L8.11362 2.68927L7.71858 2.40303ZM0.560253 4.93927L0.968562 4.65303L1.36362 4.93927L1.2408 4.42987L1.55807 4.10704H1.15427L0.967988 3.69131L0.809121 4.10704H0.335449L0.698101 4.42987L0.560253 4.93927ZM3.21856 4.65303L2.81025 4.93927L2.9481 4.42987L2.58545 4.10704H3.05912L3.21799 3.69131L3.40427 4.10704H3.80807L3.49079 4.42987L3.61362 4.93927L3.21856 4.65303ZM5.06025 4.93927L5.46856 4.65303L5.86362 4.93927L5.74077 4.42987L6.05808 4.10704H5.65426L5.46799 3.69131L5.30912 4.10704H4.83545L5.1981 4.42987L5.06025 4.93927ZM7.71858 4.65303L7.31026 4.93927L7.44813 4.42987L7.08543 4.10704H7.55911L7.71802 3.69131L7.90426 4.10704H8.30808L7.99077 4.42987L8.11362 4.93927L7.71858 4.65303ZM0.560253 7.18928L0.968562 6.90302L1.36362 7.18928L1.2408 6.67988L1.55807 6.35704H1.15427L0.967988 5.94131L0.809121 6.35704H0.335449L0.698101 6.67988L0.560253 7.18928ZM3.21856 6.90302L2.81025 7.18928L2.9481 6.67988L2.58545 6.35704H3.05912L3.21799 5.94131L3.40427 6.35704H3.80807L3.49079 6.67988L3.61362 7.18928L3.21856 6.90302ZM5.06025 7.18928L5.46856 6.90302L5.86362 7.18928L5.74077 6.67988L6.05808 6.35704H5.65426L5.46799 5.94131L5.30912 6.35704H4.83545L5.1981 6.67988L5.06025 7.18928ZM7.71858 6.90302L7.31026 7.18928L7.44813 6.67988L7.08543 6.35704H7.55911L7.71802 5.94131L7.90426 6.35704H8.30808L7.99077 6.67988L8.11362 7.18928L7.71858 6.90302ZM9.56026 2.68927L9.96858 2.40303L10.3636 2.68927L10.2408 2.17987L10.5581 1.85704H10.1543L9.96802 1.44131L9.80911 1.85704H9.33543L9.69813 2.17987L9.56026 2.68927ZM9.96858 4.65303L9.56026 4.93927L9.69813 4.42987L9.33543 4.10704H9.80911L9.96802 3.69131L10.1543 4.10704H10.5581L10.2408 4.42987L10.3636 4.93927L9.96858 4.65303ZM9.56026 7.18928L9.96858 6.90302L10.3636 7.18928L10.2408 6.67988L10.5581 6.35704H10.1543L9.96802 5.94131L9.80911 6.35704H9.33543L9.69813 6.67988L9.56026 7.18928ZM2.09356 3.52803L1.68525 3.81427L1.8231 3.30487L1.46045 2.98204H1.93412L2.09299 2.56631L2.27927 2.98204H2.68307L2.36579 3.30487L2.48862 3.81427L2.09356 3.52803ZM3.93525 3.81427L4.34356 3.52803L4.73862 3.81427L4.61579 3.30487L4.93307 2.98204H4.52927L4.34299 2.56631L4.18412 2.98204H3.71045L4.0731 3.30487L3.93525 3.81427ZM6.59358 3.52803L6.18526 3.81427L6.32313 3.30487L5.96043 2.98204H6.43411L6.59302 2.56631L6.77926 2.98204H7.18308L6.86577 3.30487L6.98862 3.81427L6.59358 3.52803ZM1.68525 6.06427L2.09356 5.77803L2.48862 6.06427L2.36579 5.55487L2.68307 5.23204H2.27927L2.09299 4.81631L1.93412 5.23204H1.46045L1.8231 5.55487L1.68525 6.06427ZM4.34356 5.77803L3.93525 6.06427L4.0731 5.55487L3.71045 5.23204H4.18412L4.34299 4.81631L4.52927 5.23204H4.93307L4.61579 5.55487L4.73862 6.06427L4.34356 5.77803ZM6.18526 6.06427L6.59358 5.77803L6.98862 6.06427L6.86577 5.55487L7.18308 5.23204H6.77926L6.59302 4.81631L6.43411 5.23204H5.96043L6.32313 5.55487L6.18526 6.06427ZM8.84358 3.52803L8.43526 3.81427L8.57313 3.30487L8.21043 2.98204H8.68411L8.84301 2.56631L9.02926 2.98204H9.43308L9.11577 3.30487L9.23862 3.81427L8.84358 3.52803ZM8.43526 6.06427L8.84358 5.77803L9.23862 6.06427L9.11577 5.55487L9.43308 5.23204H9.02926L8.84301 4.81631L8.68411 5.23204H8.21043L8.57313 5.55487L8.43526 6.06427Z" fill="#F7FCFF"/>
</g>
</svg>
