<svg width="32" height="33" viewBox="0 0 32 33" fill="none" xmlns="http://www.w3.org/2000/svg">
<path d="M10.6667 4.99023C6.98533 4.99023 4 7.97557 4 11.6569V22.3236C4 26.0049 6.98533 28.9902 10.6667 28.9902H21.3333C25.0147 28.9902 28 26.0049 28 22.3236V11.6569C28 7.97557 25.0147 4.99023 21.3333 4.99023H10.6667ZM24 7.6569C24.736 7.6569 25.3333 8.25423 25.3333 8.99023C25.3333 9.72623 24.736 10.3236 24 10.3236C23.264 10.3236 22.6667 9.72623 22.6667 8.99023C22.6667 8.25423 23.264 7.6569 24 7.6569ZM16 10.3236C19.6813 10.3236 22.6667 13.3089 22.6667 16.9902C22.6667 20.6716 19.6813 23.6569 16 23.6569C12.3187 23.6569 9.33333 20.6716 9.33333 16.9902C9.33333 13.3089 12.3187 10.3236 16 10.3236ZM16 12.9902C14.9391 12.9902 13.9217 13.4117 13.1716 14.1618C12.4214 14.912 12 15.9294 12 16.9902C12 18.0511 12.4214 19.0685 13.1716 19.8187C13.9217 20.5688 14.9391 20.9902 16 20.9902C17.0609 20.9902 18.0783 20.5688 18.8284 19.8187C19.5786 19.0685 20 18.0511 20 16.9902C20 15.9294 19.5786 14.912 18.8284 14.1618C18.0783 13.4117 17.0609 12.9902 16 12.9902Z" fill="#878787"/>
</svg>
