<svg width="32" height="33" viewBox="0 0 32 33" fill="none" xmlns="http://www.w3.org/2000/svg">
<path d="M8 4.99023C5.80671 4.99023 4 6.79694 4 8.99023V24.9902C4 27.1835 5.80671 28.9902 8 28.9902H24C26.1933 28.9902 28 27.1835 28 24.9902V8.99023C28 6.79694 26.1933 4.99023 24 4.99023H8ZM16 10.3236H18.6667C18.6667 11.6636 20.628 12.9902 21.3333 12.9902V15.6569C20.5267 15.6569 19.5573 15.3024 18.6667 14.7038V19.6569C18.6667 21.8622 16.872 23.6569 14.6667 23.6569C12.4613 23.6569 10.6667 21.8622 10.6667 19.6569C10.6667 17.4516 12.4613 15.6569 14.6667 15.6569V18.3236C13.9307 18.3236 13.3333 18.9222 13.3333 19.6569C13.3333 20.3916 13.9307 20.9902 14.6667 20.9902C15.4027 20.9902 16 20.3916 16 19.6569V10.3236Z" fill="#878787"/>
</svg>
