<svg width="32" height="33" viewBox="0 0 32 33" fill="none" xmlns="http://www.w3.org/2000/svg">
<path d="M29.3333 6.32227C28.2933 6.9396 26.2066 7.78093 24.98 8.0236C24.944 8.03293 24.9146 8.04493 24.88 8.05427C23.796 6.98493 22.3106 6.32227 20.6666 6.32227C17.3533 6.32227 14.6666 9.00893 14.6666 12.3223C14.6666 12.4969 14.652 12.8183 14.6666 12.9889C10.196 12.9889 6.79329 10.6476 4.35329 7.6556C4.08796 8.32227 3.97196 9.3756 3.97196 10.3649C3.97196 12.2329 5.43196 14.0676 7.70529 15.2049C7.28663 15.3129 6.82529 15.3903 6.34529 15.3903C5.57063 15.3903 4.75063 15.1863 3.99996 14.5676C3.99996 14.5903 3.99996 14.6116 3.99996 14.6356C3.99996 17.2463 6.77063 19.0236 9.23463 19.5183C8.73463 19.8129 7.72663 19.8423 7.23463 19.8423C6.88796 19.8423 5.66129 19.6836 5.33329 19.6223C6.01863 21.7623 8.49063 22.9649 10.8466 23.0076C9.00396 24.4529 7.72529 24.9889 3.95196 24.9889H2.66663C5.05063 26.5169 8.08663 27.6569 11.1293 27.6569C21.036 27.6569 26.6666 20.1063 26.6666 12.9889C26.6666 12.8743 26.664 12.6343 26.66 12.3929C26.66 12.3689 26.6666 12.3463 26.6666 12.3223C26.6666 12.2863 26.656 12.2516 26.656 12.2156C26.652 12.0343 26.648 11.8649 26.644 11.7769C27.6973 11.0169 28.6106 10.0689 29.3333 8.98893C28.3666 9.41827 27.3293 9.70627 26.24 9.83693C27.352 9.17027 28.932 7.58093 29.3333 6.32227Z" fill="#878787"/>
</svg>
